<svg xmlns="http://www.w3.org/2000/svg" width="48" height="240">
<g>
	<path d="M8,41.4h7.6V26.3H32v15.1h7.6V19.5L23.8,8.6L8,19.5V41.4z M7.9,46c-1.4,0-2.9-0.4-4-1.3c-1.5-1.1-2.2-2.5-2.2-4.2V18.7
		c0-0.9,0.2-1.7,0.6-2.4c0.4-0.8,1-1.4,1.8-1.9l16-10.9c0.6-0.3,1.2-0.6,1.8-0.8c0.6-0.2,1.3-0.3,1.9-0.3c0.6,0,1.3,0.1,1.9,0.3
		c0.6,0.2,1.2,0.5,1.8,0.8l16,10.9c1.1,0.7,1.9,1.7,2.3,2.9c0.2,0.4,0.2,0.9,0.2,1.4l0,21.9c0,1.7-0.7,3.1-2.2,4.2
		c-1.1,0.9-2.6,1.3-4,1.3l-14,0V30.9h-5.1V46L7.9,46z"/>
</g>
<g>
	<path d="M16.5,91.2c-0.4-0.5-0.5-1.1-0.5-1.7c0-0.7,0.2-1.2,0.5-1.7l2.2-3.1c-4.9-0.8-8.8-2.4-11.5-4.9C4.4,77.2,3,73.9,3,69.8
		c0-4.6,2-8.2,6.1-10.8c4-2.6,9-4,14.9-4s10.9,1.3,14.9,3.9S45,65.2,45,69.8c0,2.8-0.8,5.3-2.5,7.5c-1.7,2.1-4,3.8-6.9,5.1
		c-0.9,0.4-1.7,0.3-2.4-0.2s-1-1.5-1-2.9c0-0.7,0.2-1.3,0.5-1.9c0.3-0.6,0.8-1,1.3-1.2c2-0.8,3.6-1.8,4.7-3c1.1-1.2,1.7-2.3,1.7-3.3
		c0-1.6-1.3-3.3-3.8-5.3c-2.5-2-6.7-3-12.5-3c-5.8,0-9.9,1-12.5,3s-3.8,3.8-3.8,5.3c0,2.1,0.8,3.7,2.4,5s4.7,2.5,9.4,3.8l-2.9-4
		c-0.4-0.4-0.5-1-0.5-1.7c0-0.8,0.2-1.3,0.5-1.7c0.3-0.5,0.7-0.8,1.2-0.8s0.9,0.3,1.3,0.8l5.6,7.8c0.2,0.3,0.4,0.7,0.5,1.1
		c0.1,0.4,0.2,0.8,0.2,1.2c0,0.4-0.1,0.8-0.2,1.2c-0.1,0.4-0.3,0.7-0.5,1.1L19,91.2c-0.4,0.5-0.8,0.8-1.3,0.8
		C17.2,92,16.8,91.7,16.5,91.2z"/>
</g>
<g>
	<path d="M41.1,141.1l-13.9-13.5c-1.1,0.9-2.5,1.6-4,2.1c-1.6,0.5-3.2,0.8-5,0.8c-4.5,0-8.4-1.5-11.5-4.6c-3.1-3.1-4.7-6.8-4.7-11.1
		s1.6-8.1,4.7-11.1S13.7,99,18.1,99s8.3,1.5,11.4,4.6s4.7,6.8,4.7,11.1c0,1.7-0.2,3.3-0.7,4.8s-1.2,2.9-2.2,4.2l14,13.5
		c0.6,0.5,0.8,1.2,0.8,1.9s-0.3,1.4-0.9,2c-0.6,0.6-1.2,0.8-2,0.8C42.3,142,41.7,141.7,41.1,141.1z M18.2,125.1c2.9,0,5.4-1,7.4-3
		c2-2,3-4.4,3-7.3s-1-5.3-3-7.3s-4.5-3-7.4-3c-3,0-5.5,1-7.5,3c-2.1,2-3.1,4.4-3.1,7.3s1,5.3,3.1,7.3
		C12.7,124,15.2,125.1,18.2,125.1z M17.9,120.7c-0.5,0-0.9-0.2-1.2-0.5c-0.3-0.3-0.5-0.8-0.5-1.3v-2.7h-2.9c-0.5,0-0.9-0.2-1.2-0.5
		c-0.3-0.3-0.5-0.8-0.5-1.2s0.2-0.9,0.5-1.2c0.3-0.3,0.8-0.5,1.3-0.5h2.7v-2.8c0-0.5,0.2-0.9,0.5-1.2s0.8-0.5,1.3-0.5
		s0.9,0.2,1.2,0.5c0.3,0.4,0.5,0.8,0.5,1.2v2.7h2.8c0.5,0,0.9,0.2,1.2,0.5c0.3,0.3,0.5,0.8,0.5,1.2c0,0.5-0.2,0.9-0.5,1.2
		s-0.8,0.5-1.2,0.5h-2.8v2.8c0,0.5-0.2,0.9-0.5,1.2C18.8,120.6,18.4,120.7,17.9,120.7z"/>
</g>
<g>
	<path d="M41.1,188.2L27.3,175c-1.1,0.9-2.5,1.5-4,2c-1.6,0.5-3.2,0.7-5,0.7c-4.5,0-8.4-1.5-11.5-4.5c-3.1-3-4.7-6.6-4.7-10.9
		c0-4.2,1.6-7.9,4.7-10.9c3.1-3,6.9-4.5,11.4-4.5s8.3,1.5,11.4,4.5c3.1,3,4.7,6.6,4.7,10.9c0,1.7-0.2,3.2-0.7,4.7s-1.2,2.8-2.2,4.1
		l14,13.2c0.6,0.5,0.8,1.2,0.8,1.9s-0.3,1.4-0.9,1.9c-0.6,0.5-1.2,0.8-2,0.8C42.3,189,41.7,188.7,41.1,188.2z M18.2,172.4
		c2.9,0,5.4-1,7.4-2.9c2-2,3-4.3,3-7.1c0-2.8-1-5.2-3-7.1c-2-2-4.5-2.9-7.4-2.9c-3,0-5.5,1-7.5,2.9c-2.1,2-3.1,4.3-3.1,7.1
		c0,2.8,1,5.2,3.1,7.1C12.7,171.5,15.2,172.4,18.2,172.4z M13.8,163.9c-0.5,0-0.9-0.2-1.2-0.5s-0.5-0.7-0.5-1.2
		c0-0.5,0.2-0.9,0.5-1.2s0.8-0.5,1.3-0.5h8.4c0.5,0,0.9,0.2,1.2,0.5c0.3,0.3,0.5,0.7,0.5,1.2c0,0.5-0.2,0.9-0.5,1.2
		s-0.8,0.5-1.3,0.5H13.8z"/>
</g>
<g>
	<path d="M24.4,228.7c0.6,0,1.2-0.3,1.7-0.8c0.5-0.5,0.8-1.1,0.8-1.7c0-0.7-0.3-1.3-0.8-1.7s-1.1-0.7-1.7-0.7
		c-0.7,0-1.3,0.2-1.7,0.7c-0.5,0.5-0.7,1.1-0.7,1.7c0,0.6,0.2,1.2,0.7,1.7C23.1,228.4,23.7,228.7,24.4,228.7z M24.3,207.3
		c1,0,1.8,0.3,2.4,0.8c0.6,0.6,0.9,1.2,0.9,2.1c0,0.6-0.2,1.2-0.5,1.9c-0.4,0.6-1,1.3-1.8,1.9c-0.9,0.8-1.7,1.7-2.3,2.7
		c-0.6,1-0.9,1.8-0.9,2.6c0,0.5,0.2,0.9,0.6,1.2c0.4,0.3,0.8,0.5,1.3,0.5s1-0.2,1.3-0.5s0.7-0.8,0.9-1.3c0.1-0.6,0.4-1.2,0.7-1.7
		c0.3-0.5,0.8-1,1.4-1.5c1-0.8,1.7-1.6,2.2-2.6c0.5-0.9,0.7-2,0.7-3.1c0-2-0.6-3.6-1.8-4.8c-1.2-1.2-2.8-1.8-4.8-1.8
		c-1.5,0-2.8,0.3-4,0.9s-2.2,1.5-3.1,2.5c-0.3,0.4-0.4,0.9-0.3,1.5c0.1,0.6,0.3,1,0.7,1.2c0.5,0.3,1,0.4,1.6,0.3s1-0.4,1.4-0.9
		c0.4-0.5,0.9-1,1.5-1.3S23.7,207.3,24.3,207.3z M24.3,239c-3.2,0-6.2-0.6-9-1.7c-2.8-1.2-5.2-2.8-7.3-4.8c-2.1-2-3.7-4.5-4.8-7.3
		s-1.7-5.8-1.7-9s0.6-6.2,1.7-9c1.2-2.8,2.8-5.2,4.8-7.3s4.5-3.7,7.3-4.9c2.8-1.2,5.8-1.8,9-1.8c3.2,0,6.1,0.6,8.9,1.8
		c2.8,1.2,5.2,2.8,7.3,4.9c2.1,2.1,3.7,4.5,4.9,7.3c1.2,2.8,1.8,5.8,1.8,9s-0.6,6.2-1.8,9s-2.9,5.2-4.9,7.3c-2.1,2-4.5,3.6-7.3,4.8
		C30.4,238.4,27.4,239,24.3,239z M24.3,233.9c4.9,0,9.1-1.7,12.6-5.2s5.2-7.7,5.2-12.6c0-4.9-1.7-9.1-5.2-12.6
		c-3.5-3.5-7.7-5.2-12.6-5.2c-5.1,0-9.3,1.7-12.7,5.2c-3.4,3.5-5.1,7.7-5.1,12.6c0,4.9,1.7,9.2,5.1,12.6S19.2,233.9,24.3,233.9z"/>
</g>
</svg>
